<svg width="238" height="144" viewBox="0 0 238 144" fill="none" xmlns="http://www.w3.org/2000/svg">
<path d="M19.5763 5.27V15H17.9803V8.336L15.0123 15H13.9063L10.9243 8.336V15H9.32832V5.27H11.0503L14.4663 12.9L17.8683 5.27H19.5763ZM28.744 10.954C28.744 11.2433 28.7254 11.5047 28.688 11.738H22.794C22.8407 12.354 23.0694 12.8487 23.48 13.222C23.8907 13.5953 24.3947 13.782 24.992 13.782C25.8507 13.782 26.4574 13.4227 26.812 12.704H28.534C28.3007 13.4133 27.876 13.9967 27.26 14.454C26.6534 14.902 25.8974 15.126 24.992 15.126C24.2547 15.126 23.592 14.9627 23.004 14.636C22.4254 14.3 21.968 13.8333 21.632 13.236C21.3054 12.6293 21.142 11.9293 21.142 11.136C21.142 10.3427 21.3007 9.64733 21.618 9.05C21.9447 8.44333 22.3974 7.97667 22.976 7.65C23.564 7.32333 24.236 7.16 24.992 7.16C25.72 7.16 26.3687 7.31867 26.938 7.636C27.5074 7.95333 27.9507 8.40133 28.268 8.98C28.5854 9.54933 28.744 10.2073 28.744 10.954ZM27.078 10.45C27.0687 9.862 26.8587 9.39067 26.448 9.036C26.0374 8.68133 25.5287 8.504 24.922 8.504C24.3714 8.504 23.9 8.68133 23.508 9.036C23.116 9.38133 22.8827 9.85267 22.808 10.45H27.078ZM34.2066 7.16C34.8133 7.16 35.3546 7.286 35.8306 7.538C36.316 7.79 36.694 8.16333 36.9646 8.658C37.2353 9.15267 37.3706 9.75 37.3706 10.45V15H35.7886V10.688C35.7886 9.99733 35.616 9.47 35.2706 9.106C34.9253 8.73267 34.454 8.546 33.8566 8.546C33.2593 8.546 32.7833 8.73267 32.4286 9.106C32.0833 9.47 31.9106 9.99733 31.9106 10.688V15H30.3146V7.286H31.9106V8.168C32.172 7.85067 32.5033 7.60333 32.9046 7.426C33.3153 7.24867 33.7493 7.16 34.2066 7.16ZM38.8744 11.136C38.8744 10.3427 39.0331 9.64733 39.3504 9.05C39.6771 8.44333 40.1251 7.97667 40.6944 7.65C41.2638 7.32333 41.9171 7.16 42.6544 7.16C43.5878 7.16 44.3578 7.384 44.9644 7.832C45.5804 8.27067 45.9958 8.90067 46.2104 9.722H44.4884C44.3484 9.33933 44.1244 9.04067 43.8164 8.826C43.5084 8.61133 43.1211 8.504 42.6544 8.504C42.0011 8.504 41.4784 8.73733 41.0864 9.204C40.7038 9.66133 40.5124 10.3053 40.5124 11.136C40.5124 11.9667 40.7038 12.6153 41.0864 13.082C41.4784 13.5487 42.0011 13.782 42.6544 13.782C43.5784 13.782 44.1898 13.376 44.4884 12.564H46.2104C45.9864 13.348 45.5664 13.9733 44.9504 14.44C44.3344 14.8973 43.5691 15.126 42.6544 15.126C41.9171 15.126 41.2638 14.9627 40.6944 14.636C40.1251 14.3 39.6771 13.8333 39.3504 13.236C39.0331 12.6293 38.8744 11.9293 38.8744 11.136ZM47.269 11.108C47.269 10.3333 47.4276 9.64733 47.745 9.05C48.0716 8.45267 48.5103 7.99067 49.061 7.664C49.621 7.328 50.237 7.16 50.909 7.16C51.5156 7.16 52.043 7.28133 52.491 7.524C52.9483 7.75733 53.3123 8.05133 53.583 8.406V7.286H55.193V15H53.583V13.852C53.3123 14.216 52.9436 14.5193 52.477 14.762C52.0103 15.0047 51.4783 15.126 50.881 15.126C50.2183 15.126 49.6116 14.958 49.061 14.622C48.5103 14.2767 48.0716 13.8007 47.745 13.194C47.4276 12.578 47.269 11.8827 47.269 11.108ZM53.583 11.136C53.583 10.604 53.471 10.142 53.247 9.75C53.0323 9.358 52.7476 9.05933 52.393 8.854C52.0383 8.64867 51.6556 8.546 51.245 8.546C50.8343 8.546 50.4516 8.64867 50.097 8.854C49.7423 9.05 49.453 9.344 49.229 9.736C49.0143 10.1187 48.907 10.576 48.907 11.108C48.907 11.64 49.0143 12.1067 49.229 12.508C49.453 12.9093 49.7423 13.2173 50.097 13.432C50.461 13.6373 50.8436 13.74 51.245 13.74C51.6556 13.74 52.0383 13.6373 52.393 13.432C52.7476 13.2267 53.0323 12.928 53.247 12.536C53.471 12.1347 53.583 11.668 53.583 11.136ZM58.8853 8.406C59.1186 8.014 59.4266 7.71067 59.8093 7.496C60.2013 7.272 60.6633 7.16 61.1953 7.16V8.812H60.7893C60.1639 8.812 59.6879 8.97067 59.3613 9.288C59.0439 9.60533 58.8853 10.156 58.8853 10.94V15H57.2893V7.286H58.8853V8.406ZM63.4743 6.264C63.185 6.264 62.9423 6.166 62.7463 5.97C62.5503 5.774 62.4523 5.53133 62.4523 5.242C62.4523 4.95267 62.5503 4.71 62.7463 4.514C62.9423 4.318 63.185 4.22 63.4743 4.22C63.7543 4.22 63.9923 4.318 64.1883 4.514C64.3843 4.71 64.4823 4.95267 64.4823 5.242C64.4823 5.53133 64.3843 5.774 64.1883 5.97C63.9923 6.166 63.7543 6.264 63.4743 6.264ZM64.2583 7.286V15H62.6623V7.286H64.2583ZM71.5864 8.42C71.8571 8.06533 72.2258 7.76667 72.6924 7.524C73.1591 7.28133 73.6864 7.16 74.2744 7.16C74.9464 7.16 75.5578 7.328 76.1084 7.664C76.6684 7.99067 77.1071 8.45267 77.4244 9.05C77.7418 9.64733 77.9004 10.3333 77.9004 11.108C77.9004 11.8827 77.7418 12.578 77.4244 13.194C77.1071 13.8007 76.6684 14.2767 76.1084 14.622C75.5578 14.958 74.9464 15.126 74.2744 15.126C73.6864 15.126 73.1638 15.0093 72.7064 14.776C72.2491 14.5333 71.8758 14.2347 71.5864 13.88V18.668H69.9904V7.286H71.5864V8.42ZM76.2764 11.108C76.2764 10.576 76.1644 10.1187 75.9404 9.736C75.7258 9.344 75.4364 9.05 75.0724 8.854C74.7178 8.64867 74.3351 8.546 73.9244 8.546C73.5231 8.546 73.1404 8.64867 72.7764 8.854C72.4218 9.05933 72.1324 9.358 71.9084 9.75C71.6938 10.142 71.5864 10.604 71.5864 11.136C71.5864 11.668 71.6938 12.1347 71.9084 12.536C72.1324 12.928 72.4218 13.2267 72.7764 13.432C73.1404 13.6373 73.5231 13.74 73.9244 13.74C74.3351 13.74 74.7178 13.6373 75.0724 13.432C75.4364 13.2173 75.7258 12.9093 75.9404 12.508C76.1644 12.1067 76.2764 11.64 76.2764 11.108ZM86.5487 10.954C86.5487 11.2433 86.53 11.5047 86.4927 11.738H80.5987C80.6454 12.354 80.874 12.8487 81.2847 13.222C81.6954 13.5953 82.1994 13.782 82.7967 13.782C83.6554 13.782 84.262 13.4227 84.6167 12.704H86.3387C86.1054 13.4133 85.6807 13.9967 85.0647 14.454C84.458 14.902 83.702 15.126 82.7967 15.126C82.0594 15.126 81.3967 14.9627 80.8087 14.636C80.23 14.3 79.7727 13.8333 79.4367 13.236C79.11 12.6293 78.9467 11.9293 78.9467 11.136C78.9467 10.3427 79.1054 9.64733 79.4227 9.05C79.7494 8.44333 80.202 7.97667 80.7807 7.65C81.3687 7.32333 82.0407 7.16 82.7967 7.16C83.5247 7.16 84.1734 7.31867 84.7427 7.636C85.312 7.95333 85.7554 8.40133 86.0727 8.98C86.39 9.54933 86.5487 10.2073 86.5487 10.954ZM84.8827 10.45C84.8734 9.862 84.6634 9.39067 84.2527 9.036C83.842 8.68133 83.3334 8.504 82.7267 8.504C82.176 8.504 81.7047 8.68133 81.3127 9.036C80.9207 9.38133 80.6874 9.85267 80.6127 10.45H84.8827ZM92.0113 7.16C92.618 7.16 93.1593 7.286 93.6353 7.538C94.1207 7.79 94.4987 8.16333 94.7693 8.658C95.04 9.15267 95.1753 9.75 95.1753 10.45V15H93.5933V10.688C93.5933 9.99733 93.4207 9.47 93.0753 9.106C92.73 8.73267 92.2587 8.546 91.6613 8.546C91.064 8.546 90.588 8.73267 90.2333 9.106C89.888 9.47 89.7153 9.99733 89.7153 10.688V15H88.1193V7.286H89.7153V8.168C89.9767 7.85067 90.308 7.60333 90.7093 7.426C91.12 7.24867 91.554 7.16 92.0113 7.16ZM104.281 10.954C104.281 11.2433 104.262 11.5047 104.225 11.738H98.3311C98.3778 12.354 98.6065 12.8487 99.0171 13.222C99.4278 13.5953 99.9318 13.782 100.529 13.782C101.388 13.782 101.994 13.4227 102.349 12.704H104.071C103.838 13.4133 103.413 13.9967 102.797 14.454C102.19 14.902 101.434 15.126 100.529 15.126C99.7918 15.126 99.1291 14.9627 98.5411 14.636C97.9625 14.3 97.5051 13.8333 97.1691 13.236C96.8425 12.6293 96.6791 11.9293 96.6791 11.136C96.6791 10.3427 96.8378 9.64733 97.1551 9.05C97.4818 8.44333 97.9345 7.97667 98.5131 7.65C99.1011 7.32333 99.7731 7.16 100.529 7.16C101.257 7.16 101.906 7.31867 102.475 7.636C103.044 7.95333 103.488 8.40133 103.805 8.98C104.122 9.54933 104.281 10.2073 104.281 10.954ZM102.615 10.45C102.606 9.862 102.396 9.39067 101.985 9.036C101.574 8.68133 101.066 8.504 100.459 8.504C99.9085 8.504 99.4371 8.68133 99.0451 9.036C98.6531 9.38133 98.4198 9.85267 98.3451 10.45H102.615ZM107.448 8.406C107.681 8.014 107.989 7.71067 108.372 7.496C108.764 7.272 109.226 7.16 109.758 7.16V8.812H109.352C108.726 8.812 108.25 8.97067 107.924 9.288C107.606 9.60533 107.448 10.156 107.448 10.94V15H105.852V7.286H107.448V8.406ZM112.821 8.434C113.091 8.06067 113.46 7.75733 113.927 7.524C114.403 7.28133 114.93 7.16 115.509 7.16C116.19 7.16 116.806 7.32333 117.357 7.65C117.907 7.97667 118.341 8.44333 118.659 9.05C118.976 9.64733 119.135 10.3333 119.135 11.108C119.135 11.8827 118.976 12.578 118.659 13.194C118.341 13.8007 117.903 14.2767 117.343 14.622C116.792 14.958 116.181 15.126 115.509 15.126C114.911 15.126 114.379 15.0093 113.913 14.776C113.455 14.5427 113.091 14.244 112.821 13.88V15H111.225V4.64H112.821V8.434ZM117.511 11.108C117.511 10.576 117.399 10.1187 117.175 9.736C116.96 9.344 116.671 9.05 116.307 8.854C115.952 8.64867 115.569 8.546 115.159 8.546C114.757 8.546 114.375 8.64867 114.011 8.854C113.656 9.05933 113.367 9.358 113.143 9.75C112.928 10.142 112.821 10.604 112.821 11.136C112.821 11.668 112.928 12.1347 113.143 12.536C113.367 12.928 113.656 13.2267 114.011 13.432C114.375 13.6373 114.757 13.74 115.159 13.74C115.569 13.74 115.952 13.6373 116.307 13.432C116.671 13.2173 116.96 12.9093 117.175 12.508C117.399 12.1067 117.511 11.64 117.511 11.108ZM120.181 11.108C120.181 10.3333 120.34 9.64733 120.657 9.05C120.984 8.45267 121.422 7.99067 121.973 7.664C122.533 7.328 123.149 7.16 123.821 7.16C124.428 7.16 124.955 7.28133 125.403 7.524C125.86 7.75733 126.224 8.05133 126.495 8.406V7.286H128.105V15H126.495V13.852C126.224 14.216 125.856 14.5193 125.389 14.762C124.922 15.0047 124.39 15.126 123.793 15.126C123.13 15.126 122.524 14.958 121.973 14.622C121.422 14.2767 120.984 13.8007 120.657 13.194C120.34 12.578 120.181 11.8827 120.181 11.108ZM126.495 11.136C126.495 10.604 126.383 10.142 126.159 9.75C125.944 9.358 125.66 9.05933 125.305 8.854C124.95 8.64867 124.568 8.546 124.157 8.546C123.746 8.546 123.364 8.64867 123.009 8.854C122.654 9.05 122.365 9.344 122.141 9.736C121.926 10.1187 121.819 10.576 121.819 11.108C121.819 11.64 121.926 12.1067 122.141 12.508C122.365 12.9093 122.654 13.2173 123.009 13.432C123.373 13.6373 123.756 13.74 124.157 13.74C124.568 13.74 124.95 13.6373 125.305 13.432C125.66 13.2267 125.944 12.928 126.159 12.536C126.383 12.1347 126.495 11.668 126.495 11.136ZM134.093 7.16C134.7 7.16 135.241 7.286 135.717 7.538C136.203 7.79 136.581 8.16333 136.851 8.658C137.122 9.15267 137.257 9.75 137.257 10.45V15H135.675V10.688C135.675 9.99733 135.503 9.47 135.157 9.106C134.812 8.73267 134.341 8.546 133.743 8.546C133.146 8.546 132.67 8.73267 132.315 9.106C131.97 9.47 131.797 9.99733 131.797 10.688V15H130.201V7.286H131.797V8.168C132.059 7.85067 132.39 7.60333 132.791 7.426C133.202 7.24867 133.636 7.16 134.093 7.16ZM142.401 7.16C142.998 7.16 143.526 7.28133 143.983 7.524C144.45 7.75733 144.814 8.05133 145.075 8.406V7.286H146.685V15.126C146.685 15.8353 146.536 16.4653 146.237 17.016C145.938 17.576 145.504 18.0147 144.935 18.332C144.375 18.6493 143.703 18.808 142.919 18.808C141.874 18.808 141.006 18.5607 140.315 18.066C139.624 17.5807 139.232 16.918 139.139 16.078H140.721C140.842 16.4793 141.099 16.8013 141.491 17.044C141.892 17.296 142.368 17.422 142.919 17.422C143.563 17.422 144.081 17.226 144.473 16.834C144.874 16.442 145.075 15.8727 145.075 15.126V13.838C144.804 14.202 144.436 14.51 143.969 14.762C143.512 15.0047 142.989 15.126 142.401 15.126C141.729 15.126 141.113 14.958 140.553 14.622C140.002 14.2767 139.564 13.8007 139.237 13.194C138.92 12.578 138.761 11.8827 138.761 11.108C138.761 10.3333 138.92 9.64733 139.237 9.05C139.564 8.45267 140.002 7.99067 140.553 7.664C141.113 7.328 141.729 7.16 142.401 7.16ZM145.075 11.136C145.075 10.604 144.963 10.142 144.739 9.75C144.524 9.358 144.24 9.05933 143.885 8.854C143.53 8.64867 143.148 8.546 142.737 8.546C142.326 8.546 141.944 8.64867 141.589 8.854C141.234 9.05 140.945 9.344 140.721 9.736C140.506 10.1187 140.399 10.576 140.399 11.108C140.399 11.64 140.506 12.1067 140.721 12.508C140.945 12.9093 141.234 13.2173 141.589 13.432C141.953 13.6373 142.336 13.74 142.737 13.74C143.148 13.74 143.53 13.6373 143.885 13.432C144.24 13.2267 144.524 12.928 144.739 12.536C144.963 12.1347 145.075 11.668 145.075 11.136ZM148.249 11.108C148.249 10.3333 148.408 9.64733 148.725 9.05C149.052 8.45267 149.491 7.99067 150.041 7.664C150.601 7.328 151.217 7.16 151.889 7.16C152.496 7.16 153.023 7.28133 153.471 7.524C153.929 7.75733 154.293 8.05133 154.563 8.406V7.286H156.173V15H154.563V13.852C154.293 14.216 153.924 14.5193 153.457 14.762C152.991 15.0047 152.459 15.126 151.861 15.126C151.199 15.126 150.592 14.958 150.041 14.622C149.491 14.2767 149.052 13.8007 148.725 13.194C148.408 12.578 148.249 11.8827 148.249 11.108ZM154.563 11.136C154.563 10.604 154.451 10.142 154.227 9.75C154.013 9.358 153.728 9.05933 153.373 8.854C153.019 8.64867 152.636 8.546 152.225 8.546C151.815 8.546 151.432 8.64867 151.077 8.854C150.723 9.05 150.433 9.344 150.209 9.736C149.995 10.1187 149.887 10.576 149.887 11.108C149.887 11.64 149.995 12.1067 150.209 12.508C150.433 12.9093 150.723 13.2173 151.077 13.432C151.441 13.6373 151.824 13.74 152.225 13.74C152.636 13.74 153.019 13.6373 153.373 13.432C153.728 13.2267 154.013 12.928 154.227 12.536C154.451 12.1347 154.563 11.668 154.563 11.136ZM162.162 7.16C162.768 7.16 163.31 7.286 163.786 7.538C164.271 7.79 164.649 8.16333 164.92 8.658C165.19 9.15267 165.326 9.75 165.326 10.45V15H163.744V10.688C163.744 9.99733 163.571 9.47 163.226 9.106C162.88 8.73267 162.409 8.546 161.812 8.546C161.214 8.546 160.738 8.73267 160.384 9.106C160.038 9.47 159.866 9.99733 159.866 10.688V15H158.27V7.286H159.866V8.168C160.127 7.85067 160.458 7.60333 160.86 7.426C161.27 7.24867 161.704 7.16 162.162 7.16ZM172.86 8.588V12.858C172.86 13.1473 172.926 13.3573 173.056 13.488C173.196 13.6093 173.43 13.67 173.756 13.67H174.736V15H173.476C172.758 15 172.207 14.832 171.824 14.496C171.442 14.16 171.25 13.614 171.25 12.858V8.588H170.34V7.286H171.25V5.368H172.86V7.286H174.736V8.588H172.86ZM183.277 10.954C183.277 11.2433 183.259 11.5047 183.221 11.738H177.327C177.374 12.354 177.603 12.8487 178.013 13.222C178.424 13.5953 178.928 13.782 179.525 13.782C180.384 13.782 180.991 13.4227 181.345 12.704H183.067C182.834 13.4133 182.409 13.9967 181.793 14.454C181.187 14.902 180.431 15.126 179.525 15.126C178.788 15.126 178.125 14.9627 177.537 14.636C176.959 14.3 176.501 13.8333 176.165 13.236C175.839 12.6293 175.675 11.9293 175.675 11.136C175.675 10.3427 175.834 9.64733 176.151 9.05C176.478 8.44333 176.931 7.97667 177.509 7.65C178.097 7.32333 178.769 7.16 179.525 7.16C180.253 7.16 180.902 7.31867 181.471 7.636C182.041 7.95333 182.484 8.40133 182.801 8.98C183.119 9.54933 183.277 10.2073 183.277 10.954ZM181.611 10.45C181.602 9.862 181.392 9.39067 180.981 9.036C180.571 8.68133 180.062 8.504 179.455 8.504C178.905 8.504 178.433 8.68133 178.041 9.036C177.649 9.38133 177.416 9.85267 177.341 10.45H181.611ZM186.444 8.406C186.677 8.014 186.985 7.71067 187.368 7.496C187.76 7.272 188.222 7.16 188.754 7.16V8.812H188.348C187.723 8.812 187.247 8.97067 186.92 9.288C186.603 9.60533 186.444 10.156 186.444 10.94V15H184.848V7.286H186.444V8.406ZM191.817 8.434C192.088 8.06067 192.456 7.75733 192.923 7.524C193.399 7.28133 193.926 7.16 194.505 7.16C195.186 7.16 195.802 7.32333 196.353 7.65C196.904 7.97667 197.338 8.44333 197.655 9.05C197.972 9.64733 198.131 10.3333 198.131 11.108C198.131 11.8827 197.972 12.578 197.655 13.194C197.338 13.8007 196.899 14.2767 196.339 14.622C195.788 14.958 195.177 15.126 194.505 15.126C193.908 15.126 193.376 15.0093 192.909 14.776C192.452 14.5427 192.088 14.244 191.817 13.88V15H190.221V4.64H191.817V8.434ZM196.507 11.108C196.507 10.576 196.395 10.1187 196.171 9.736C195.956 9.344 195.667 9.05 195.303 8.854C194.948 8.64867 194.566 8.546 194.155 8.546C193.754 8.546 193.371 8.64867 193.007 8.854C192.652 9.05933 192.363 9.358 192.139 9.75C191.924 10.142 191.817 10.604 191.817 11.136C191.817 11.668 191.924 12.1347 192.139 12.536C192.363 12.928 192.652 13.2267 193.007 13.432C193.371 13.6373 193.754 13.74 194.155 13.74C194.566 13.74 194.948 13.6373 195.303 13.432C195.667 13.2173 195.956 12.9093 196.171 12.508C196.395 12.1067 196.507 11.64 196.507 11.108ZM199.177 11.108C199.177 10.3333 199.336 9.64733 199.653 9.05C199.98 8.45267 200.419 7.99067 200.969 7.664C201.529 7.328 202.145 7.16 202.817 7.16C203.424 7.16 203.951 7.28133 204.399 7.524C204.857 7.75733 205.221 8.05133 205.491 8.406V7.286H207.101V15H205.491V13.852C205.221 14.216 204.852 14.5193 204.385 14.762C203.919 15.0047 203.387 15.126 202.789 15.126C202.127 15.126 201.52 14.958 200.969 14.622C200.419 14.2767 199.98 13.8007 199.653 13.194C199.336 12.578 199.177 11.8827 199.177 11.108ZM205.491 11.136C205.491 10.604 205.379 10.142 205.155 9.75C204.941 9.358 204.656 9.05933 204.301 8.854C203.947 8.64867 203.564 8.546 203.153 8.546C202.743 8.546 202.36 8.64867 202.005 8.854C201.651 9.05 201.361 9.344 201.137 9.736C200.923 10.1187 200.815 10.576 200.815 11.108C200.815 11.64 200.923 12.1067 201.137 12.508C201.361 12.9093 201.651 13.2173 202.005 13.432C202.369 13.6373 202.752 13.74 203.153 13.74C203.564 13.74 203.947 13.6373 204.301 13.432C204.656 13.2267 204.941 12.928 205.155 12.536C205.379 12.1347 205.491 11.668 205.491 11.136ZM210.009 6.264C209.72 6.264 209.477 6.166 209.281 5.97C209.085 5.774 208.987 5.53133 208.987 5.242C208.987 4.95267 209.085 4.71 209.281 4.514C209.477 4.318 209.72 4.22 210.009 4.22C210.289 4.22 210.527 4.318 210.723 4.514C210.919 4.71 211.017 4.95267 211.017 5.242C211.017 5.53133 210.919 5.774 210.723 5.97C210.527 6.166 210.289 6.264 210.009 6.264ZM210.793 7.286V15H209.197V7.286H210.793ZM215.941 11.15L219.497 15H217.341L214.485 11.682V15H212.889V4.64H214.485V10.66L217.285 7.286H219.497L215.941 11.15ZM221.285 15.098C220.995 15.098 220.753 15 220.557 14.804C220.361 14.608 220.263 14.3653 220.263 14.076C220.263 13.7867 220.361 13.544 220.557 13.348C220.753 13.152 220.995 13.054 221.285 13.054C221.565 13.054 221.803 13.152 221.999 13.348C222.195 13.544 222.293 13.7867 222.293 14.076C222.293 14.3653 222.195 14.608 221.999 14.804C221.803 15 221.565 15.098 221.285 15.098ZM224.662 15.098C224.372 15.098 224.13 15 223.934 14.804C223.738 14.608 223.64 14.3653 223.64 14.076C223.64 13.7867 223.738 13.544 223.934 13.348C224.13 13.152 224.372 13.054 224.662 13.054C224.942 13.054 225.18 13.152 225.376 13.348C225.572 13.544 225.67 13.7867 225.67 14.076C225.67 14.3653 225.572 14.608 225.376 14.804C225.18 15 224.942 15.098 224.662 15.098ZM228.039 15.098C227.749 15.098 227.507 15 227.311 14.804C227.115 14.608 227.017 14.3653 227.017 14.076C227.017 13.7867 227.115 13.544 227.311 13.348C227.507 13.152 227.749 13.054 228.039 13.054C228.319 13.054 228.557 13.152 228.753 13.348C228.949 13.544 229.047 13.7867 229.047 14.076C229.047 14.3653 228.949 14.608 228.753 14.804C228.557 15 228.319 15.098 228.039 15.098Z" fill="#8A8A8A"/>
<path d="M225.622 73.3633H12.3864C5.97329 73.3633 0.774414 78.5622 0.774414 84.9753V131.253C0.774414 137.666 5.97329 142.865 12.3864 142.865H225.622C232.035 142.865 237.234 137.666 237.234 131.253V84.9753C237.234 78.5622 232.035 73.3633 225.622 73.3633Z" fill="white"/>
<path d="M225.614 73.363C228.694 73.363 231.647 74.5864 233.825 76.7641C236.002 78.9418 237.226 81.8953 237.226 84.975V131.253C237.226 134.332 236.002 137.286 233.825 139.464C231.647 141.641 228.694 142.865 225.614 142.865H12.3862C9.30646 142.865 6.35289 141.641 4.17522 139.464C1.99754 137.286 0.774135 134.332 0.774135 131.253V84.975C0.774135 81.8953 1.99754 78.9418 4.17522 76.7641C6.35289 74.5864 9.30646 73.363 12.3862 73.363H225.614ZM225.614 72.5889H12.3862C9.10114 72.5889 5.95068 73.8938 3.62782 76.2167C1.30497 78.5395 0 81.69 0 84.975V131.253C0 134.538 1.30497 137.688 3.62782 140.011C5.95068 142.334 9.10114 143.639 12.3862 143.639H225.614C228.899 143.639 232.049 142.334 234.372 140.011C236.695 137.688 238 134.538 238 131.253V84.975C238 81.69 236.695 78.5395 234.372 76.2167C232.049 73.8938 228.899 72.5889 225.614 72.5889Z" fill="#231F20"/>
<path d="M176.635 73.3633V142.865H12.3864C9.30674 142.865 6.35317 141.642 4.1755 139.464C1.99782 137.286 0.774414 134.333 0.774414 131.253V84.9753C0.774414 81.8956 1.99782 78.942 4.1755 76.7644C6.35317 74.5867 9.30674 73.3633 12.3864 73.3633H176.635Z" fill="#7126B5"/>
<path d="M141.706 137.175C141.706 137.175 140.042 140.271 140.344 140.914C140.646 141.556 144.052 142.779 143.936 143.12C143.82 143.461 136.411 143.275 136.148 142.895C135.885 142.516 135.993 142.361 135.955 141.448C135.916 140.534 138.672 136.3 138.672 136.3" fill="#231F20"/>
<path d="M141.35 143.67C139.12 143.67 136.132 143.546 135.83 143.113C135.619 142.811 135.528 142.441 135.575 142.076C135.575 141.921 135.575 141.727 135.575 141.464C135.536 140.504 137.688 137.106 138.354 136.091C138.381 136.048 138.416 136.01 138.457 135.981C138.499 135.951 138.546 135.931 138.596 135.92C138.646 135.909 138.698 135.908 138.748 135.918C138.798 135.927 138.846 135.947 138.888 135.975C138.974 136.031 139.035 136.118 139.056 136.218C139.078 136.319 139.059 136.423 139.004 136.51C137.711 138.499 136.333 140.945 136.349 141.433V142.083C136.349 142.401 136.349 142.486 136.418 142.602C138.582 142.875 140.765 142.971 142.944 142.888L142.325 142.586C141.009 141.952 140.196 141.534 140.003 141.038C139.662 140.264 140.854 137.942 141.381 136.959C141.405 136.914 141.438 136.874 141.478 136.842C141.517 136.81 141.563 136.786 141.612 136.772C141.661 136.758 141.712 136.753 141.763 136.759C141.813 136.764 141.862 136.779 141.907 136.804C141.952 136.828 141.991 136.861 142.023 136.901C142.055 136.94 142.079 136.986 142.093 137.035C142.108 137.084 142.112 137.135 142.107 137.186C142.102 137.236 142.086 137.285 142.062 137.33C141.234 138.878 140.614 140.427 140.715 140.729C141.314 141.191 141.973 141.572 142.673 141.859C143.951 142.478 144.477 142.734 144.315 143.214C144.222 143.492 143.904 143.539 143.719 143.57C143.533 143.601 142.488 143.67 141.35 143.67Z" fill="#231F20"/>
<path d="M138.198 108.385L124.922 104.6L113.534 121.569C113.534 121.569 97.5869 131.81 97.5869 132.283C97.5869 132.941 100.312 137.446 100.312 137.446C100.312 137.446 110.376 133.452 118.62 129.705C125.185 126.74 131.904 116.932 131.904 116.932L144.546 122.745L136.805 137.175L142.742 137.694C142.742 137.694 151.258 126.082 154.083 119.726C156.909 113.371 138.198 108.385 138.198 108.385Z" fill="#231F20"/>
<path d="M142.704 138.08L136.759 137.562C136.696 137.556 136.635 137.535 136.582 137.499C136.529 137.464 136.486 137.416 136.457 137.36C136.426 137.305 136.41 137.242 136.41 137.178C136.41 137.115 136.426 137.052 136.457 136.997L144.074 122.938L132.068 117.457C130.914 119.091 124.868 127.366 118.807 130.107C110.686 133.768 100.583 137.771 100.483 137.809C100.399 137.845 100.305 137.849 100.218 137.82C100.131 137.792 100.057 137.733 100.011 137.655C99.1745 136.269 97.2314 133.01 97.2314 132.29C97.2314 132.019 97.2314 131.609 113.287 121.297L124.628 104.398C124.673 104.329 124.738 104.276 124.814 104.247C124.891 104.218 124.975 104.214 125.054 104.235L138.338 108.013C138.934 108.176 151.932 111.682 154.355 116.745C154.605 117.229 154.742 117.763 154.756 118.308C154.769 118.852 154.658 119.393 154.432 119.888C151.622 126.252 143.13 137.809 143.045 137.926C143.006 137.979 142.955 138.021 142.895 138.048C142.835 138.075 142.769 138.086 142.704 138.08ZM137.386 136.834L142.518 137.283C143.594 135.812 151.103 125.423 153.697 119.571C153.877 119.176 153.964 118.746 153.952 118.312C153.94 117.879 153.829 117.454 153.627 117.07C151.351 112.317 138.237 108.787 138.144 108.756L125.131 105.048L113.899 121.785C113.868 121.826 113.832 121.863 113.79 121.893C107.922 125.663 99.0816 131.423 98.0443 132.39C98.7659 133.968 99.5909 135.497 100.514 136.966C102.263 136.269 111.189 132.692 118.505 129.387C124.899 126.507 131.564 116.846 131.665 116.745C131.717 116.67 131.793 116.616 131.881 116.592C131.969 116.568 132.062 116.576 132.145 116.614L144.818 122.396C144.866 122.418 144.909 122.449 144.945 122.487C144.981 122.526 145.008 122.571 145.027 122.621C145.048 122.67 145.059 122.722 145.059 122.776C145.059 122.829 145.048 122.882 145.027 122.931L137.386 136.834Z" fill="#231F20"/>
<path d="M169.915 94.4584C169.915 94.4584 175.442 94.6055 175.543 94.4584C175.643 94.3113 176.766 85.9429 175.891 86.2836C175.016 86.6242 173.22 91.4161 173.22 91.4161L169.257 91.0445" fill="white"/>
<path d="M173.879 94.9148C173.012 94.9148 171.75 94.9148 169.9 94.8452C169.849 94.8442 169.799 94.8331 169.753 94.8126C169.707 94.7922 169.665 94.7627 169.631 94.7259C169.596 94.6891 169.569 94.6458 169.552 94.5985C169.534 94.5512 169.526 94.5008 169.528 94.4504C169.534 94.349 169.578 94.2536 169.651 94.1832C169.724 94.1129 169.821 94.0728 169.923 94.071C172.075 94.133 174.49 94.1639 175.226 94.1175C175.427 92.9718 176 88.2186 175.814 86.8638C174.903 88.3436 174.153 89.9163 173.577 91.5551C173.547 91.6337 173.492 91.7004 173.421 91.745C173.349 91.7897 173.266 91.81 173.182 91.8028L169.226 91.4312C169.124 91.4214 169.03 91.3723 168.963 91.2943C168.897 91.2163 168.863 91.1155 168.87 91.0132C168.883 90.9113 168.935 90.8182 169.013 90.7522C169.092 90.6863 169.193 90.6523 169.296 90.6571L172.965 91.0055C173.499 89.6198 174.862 86.2987 175.744 85.9271C175.849 85.8835 175.965 85.8758 176.074 85.9053C176.183 85.9347 176.28 85.9996 176.348 86.0897C177.045 86.9722 176.085 94.3807 175.86 94.6904C175.76 94.822 175.69 94.9148 173.879 94.9148Z" fill="#231F20"/>
<path d="M140.978 87.4288C138.508 86.3373 136.163 88.7603 134.785 90.5253C131.154 95.0463 128.235 100.256 125.054 105.126C125.054 105.126 131.905 117.024 141.396 111.04L151.893 95.1314H168.862C168.862 95.1314 168.916 93.8773 168.862 90.7343C168.862 90.6724 141.837 87.8004 140.978 87.4288Z" fill="white"/>
<path d="M136.031 113.053C135.282 113.054 134.536 112.963 133.809 112.782C128.313 111.419 124.86 105.52 124.713 105.265C124.677 105.204 124.658 105.135 124.658 105.064C124.658 104.993 124.677 104.923 124.713 104.862C125.65 103.43 126.579 101.944 127.477 100.504C129.596 96.9437 131.923 93.511 134.444 90.2235C135.342 89.1088 138.052 85.7181 141.086 87.0573C141.744 87.2818 150.43 88.2959 166.896 90.0842C169.218 90.3319 169.218 90.3319 169.218 90.657C169.265 93.7536 169.218 95.0386 169.218 95.0928C169.214 95.1928 169.172 95.2873 169.1 95.3566C169.028 95.4258 168.931 95.4645 168.831 95.4644H152.102L141.713 111.203C141.687 111.25 141.646 111.288 141.597 111.311C139.947 112.413 138.015 113.018 136.031 113.053ZM125.511 105.079C126.161 106.117 129.381 110.885 134.026 112.046C135.24 112.329 136.499 112.357 137.723 112.128C138.948 111.899 140.112 111.417 141.141 110.715L151.591 94.8838C151.627 94.8303 151.676 94.7861 151.732 94.7551C151.789 94.7241 151.852 94.7072 151.916 94.7058H168.514C168.514 94.1639 168.514 92.9949 168.514 91.0441L166.88 90.8661C149.416 88.9694 141.388 88.025 140.854 87.7695C139.174 86.9954 137.301 87.9863 135.118 90.7112C132.6 93.9746 130.274 97.3813 128.151 100.914C127.291 102.292 126.401 103.686 125.511 105.079Z" fill="#231F20"/>
<path d="M143.556 87.2588C140.629 86.5775 141.713 81.4915 142.487 79.4323C142.639 78.9745 142.876 78.5491 143.184 78.1782C143.52 77.858 143.92 77.613 144.358 77.4595C144.795 77.306 145.261 77.2475 145.723 77.2879C146.643 77.3739 147.556 77.5213 148.456 77.7292C150.512 78.0762 152.622 77.8924 154.587 77.195C155.253 76.955 156.019 76.6763 156.615 77.0479C156.797 77.1817 156.947 77.3535 157.055 77.5514C157.164 77.7493 157.228 77.9685 157.242 78.1936C157.277 78.7275 157.175 79.2613 156.946 79.7448C156.717 80.2283 156.369 80.6456 155.934 80.9573C155.037 81.526 154.007 81.8515 152.946 81.9017C153.085 82.7301 153.225 82.9933 152.729 83.6745C152.236 84.2873 151.642 84.811 150.972 85.2228C150.253 85.6331 149.505 85.9901 148.735 86.2911C147.117 87.0033 145.537 87.6303 143.703 87.2897L143.556 87.2588Z" fill="white"/>
<path d="M144.756 87.7693C144.379 87.7693 144.004 87.7356 143.633 87.6686H143.471C143.103 87.5912 142.758 87.432 142.46 87.2028C142.163 86.9736 141.921 86.6804 141.752 86.3449C140.699 84.394 141.535 80.9259 142.124 79.3776C142.293 78.8715 142.556 78.4015 142.898 77.9919C143.272 77.6326 143.718 77.3565 144.206 77.1818C144.694 77.007 145.214 76.9375 145.731 76.9778C146.386 77.0173 147.036 77.1131 147.674 77.2643L148.518 77.4268C150.509 77.7601 152.552 77.5817 154.456 76.9082C155.23 76.645 156.073 76.3353 156.778 76.7998C157.005 76.9645 157.192 77.1778 157.326 77.4243C157.46 77.6708 157.537 77.9441 157.552 78.2242C157.593 78.8216 157.481 79.4196 157.227 79.9615C156.972 80.5034 156.583 80.9713 156.097 81.3207C155.272 81.8767 154.317 82.2076 153.325 82.2806C153.408 82.5667 153.419 82.8685 153.359 83.1599C153.298 83.4514 153.167 83.7235 152.977 83.9528C152.452 84.6028 151.821 85.1602 151.111 85.6017C150.536 85.9421 149.936 86.2372 149.315 86.4842L148.82 86.701C147.553 87.3327 146.169 87.6964 144.756 87.7693ZM145.53 77.7055C145.146 77.6832 144.761 77.7404 144.4 77.8736C144.039 78.0068 143.709 78.2131 143.432 78.4796C143.155 78.8131 142.944 79.1969 142.813 79.6099C142.178 81.3052 141.543 84.394 142.395 85.981C142.512 86.218 142.682 86.4253 142.891 86.5875C143.1 86.7497 143.343 86.8626 143.602 86.9177H143.726C145.414 87.2351 146.823 86.6932 148.533 85.95L149.037 85.7333C149.619 85.5058 150.181 85.2286 150.716 84.905C151.348 84.5213 151.908 84.0315 152.373 83.4573C152.698 83.0006 152.675 82.8612 152.574 82.2806L152.52 81.9787C152.504 81.8754 152.529 81.7698 152.59 81.6846C152.62 81.6442 152.659 81.6104 152.703 81.5852C152.747 81.5599 152.795 81.5437 152.845 81.5375H153.016C153.954 81.4898 154.864 81.199 155.655 80.6937C156.038 80.4245 156.344 80.0618 156.546 79.6403C156.748 79.2188 156.839 78.7526 156.809 78.2861C156.799 78.1183 156.753 77.9545 156.676 77.8052C156.599 77.6559 156.491 77.5244 156.36 77.4191C155.934 77.1559 155.284 77.4191 154.703 77.5894C152.689 78.305 150.525 78.4942 148.417 78.139C148.123 78.0926 147.837 78.0306 147.542 77.9765C146.948 77.8307 146.342 77.74 145.731 77.7055H145.53Z" fill="#231F20"/>
<path d="M151.42 85.8027C151.42 85.8027 151.629 88.2413 151.18 88.4812C150.731 88.7212 150.05 88.0245 150.05 88.0245" fill="white"/>
<path d="M150.972 88.9153C150.513 88.8579 150.091 88.6382 149.78 88.296C149.717 88.2215 149.684 88.126 149.689 88.0286C149.693 87.9312 149.734 87.8391 149.804 87.7706C149.873 87.7021 149.966 87.6624 150.063 87.6594C150.161 87.6563 150.256 87.6901 150.329 87.7541C150.577 88.0018 150.918 88.1799 151.003 88.1412C151.104 87.3703 151.104 86.5896 151.003 85.8188C150.996 85.7165 151.03 85.6157 151.096 85.5377C151.163 85.4597 151.257 85.4106 151.359 85.4007C151.41 85.3965 151.461 85.4024 151.51 85.418C151.558 85.4336 151.603 85.4587 151.642 85.4918C151.681 85.5249 151.713 85.5654 151.736 85.6109C151.759 85.6563 151.773 85.706 151.777 85.7568C151.932 87.5451 151.777 88.567 151.328 88.8069C151.22 88.8715 151.098 88.9087 150.972 88.9153Z" fill="#231F20"/>
<path d="M153.209 81.6621C153.627 82.684 151.954 85.5328 151.482 86.3069C150.822 87.4991 150.135 88.6706 149.423 89.8215C148.974 90.5492 147.008 89.5041 146.791 89.0473L145.467 92.1981C144.534 91.8445 143.743 91.1945 143.214 90.3479C142.038 88.7609 142.224 88.3816 142.224 88.3816L144.229 85.0141C144.701 85.2173 145.221 85.2866 145.73 85.2142C146.239 85.1418 146.719 84.9306 147.116 84.6038C148.288 83.6339 149.261 82.4455 149.98 81.1047C149.98 81.1047 152.798 80.6557 153.209 81.6621Z" fill="white"/>
<path d="M145.467 92.6619H145.382C144.356 92.297 143.483 91.5959 142.905 90.6724C142.03 89.488 141.682 88.6906 141.875 88.3035L143.903 84.9051C143.955 84.8193 144.038 84.7568 144.135 84.7308C144.231 84.7048 144.334 84.7174 144.422 84.7657C144.831 84.9341 145.278 84.9871 145.715 84.9188C146.152 84.8506 146.561 84.6637 146.899 84.3787C148.02 83.4453 148.951 82.3046 149.64 81.0189C149.666 80.9667 149.705 80.9214 149.752 80.8865C149.799 80.8516 149.853 80.828 149.911 80.8177C150.429 80.717 153.061 80.299 153.565 81.5299C153.967 82.513 153.023 84.4174 151.947 86.3295L151.823 86.554C151.165 87.7307 150.468 88.9151 149.756 90.0763C149.655 90.2302 149.513 90.3526 149.346 90.4293C149.179 90.506 148.994 90.5339 148.811 90.5098C148.133 90.4424 147.484 90.1966 146.93 89.7976L145.823 92.4374C145.792 92.5052 145.742 92.5625 145.678 92.6023C145.615 92.6421 145.542 92.6628 145.467 92.6619ZM142.603 88.5745C142.794 89.1744 143.108 89.7281 143.524 90.2002C143.976 90.8417 144.57 91.3713 145.258 91.7484L146.435 88.9538C146.461 88.8861 146.507 88.8275 146.566 88.7849C146.625 88.7424 146.695 88.7177 146.768 88.7138C146.842 88.71 146.916 88.7277 146.98 88.7648C147.045 88.8018 147.097 88.8567 147.132 88.9228C147.618 89.3545 148.227 89.625 148.873 89.697C148.943 89.697 149.059 89.697 149.098 89.6273C149.802 88.4816 150.499 87.3049 151.142 86.136L151.273 85.9115C152.527 83.682 153.061 82.2963 152.821 81.7853C152.581 81.2744 151.273 81.3441 150.197 81.5066C149.472 82.8415 148.491 84.0201 147.31 84.9748C146.898 85.293 146.417 85.5106 145.907 85.6101C145.396 85.7095 144.869 85.6881 144.368 85.5476L142.603 88.5745Z" fill="#231F20"/>
<path d="M149.879 88.977C149.516 88.8632 149.205 88.6239 149.002 88.302C148.8 87.98 148.718 87.5964 148.772 87.2197" fill="white"/>
<path d="M149.88 89.3413H149.787C149.335 89.2041 148.947 88.9107 148.692 88.5136C148.437 88.1165 148.331 87.6416 148.394 87.1737C148.402 87.0711 148.45 86.9759 148.529 86.9091C148.607 86.8423 148.709 86.8094 148.812 86.8176C148.914 86.8259 149.009 86.8745 149.076 86.9529C149.143 87.0313 149.176 87.133 149.168 87.2357C149.117 87.5226 149.172 87.8184 149.323 88.0677C149.474 88.317 149.71 88.5028 149.988 88.5904C150.091 88.6038 150.184 88.6573 150.247 88.7394C150.31 88.8214 150.338 88.9251 150.325 89.0278C150.312 89.1305 150.258 89.2236 150.176 89.2868C150.094 89.3499 149.99 89.3779 149.888 89.3645L149.88 89.3413Z" fill="#231F20"/>
<path d="M148.726 85.3231C148.851 85.0061 148.889 84.6611 148.835 84.3245C148.829 84.0614 148.785 83.8005 148.703 83.5504C148.658 83.4272 148.587 83.3152 148.494 83.2217C148.402 83.1282 148.291 83.0555 148.169 83.0085C148.055 82.9793 147.936 82.9746 147.82 82.9946C147.704 83.0146 147.593 83.0589 147.495 83.1246C147.301 83.2569 147.14 83.4316 147.023 83.6355C146.76 84.0721 146.616 84.5702 146.607 85.0798C146.597 85.5894 146.722 86.0925 146.969 86.5385V86.4302" fill="white"/>
<path d="M146.907 86.8791C146.851 86.8819 146.795 86.8689 146.746 86.8415C146.696 86.8141 146.656 86.7735 146.628 86.7243C146.346 86.2164 146.204 85.6428 146.217 85.0621C146.229 84.4814 146.395 83.9143 146.698 83.4187C146.849 83.1692 147.049 82.9532 147.286 82.784C147.432 82.6905 147.595 82.6284 147.765 82.6018C147.936 82.5751 148.11 82.5844 148.277 82.6291C148.456 82.6922 148.618 82.7945 148.752 82.9285C148.886 83.0624 148.988 83.2246 149.051 83.4033C149.144 83.7042 149.191 84.0173 149.191 84.3322C149.254 84.7413 149.2 85.1599 149.036 85.5399C148.987 85.6302 148.904 85.6978 148.806 85.7282C148.707 85.7585 148.601 85.7493 148.509 85.7024C148.461 85.6717 148.42 85.6311 148.389 85.5833C148.358 85.5355 148.337 85.4817 148.329 85.4253C148.32 85.369 148.323 85.3114 148.338 85.2564C148.353 85.2014 148.38 85.1503 148.417 85.1064C148.509 84.8592 148.533 84.5918 148.486 84.3322C148.484 84.1086 148.448 83.8866 148.378 83.6742C148.357 83.6033 148.32 83.5379 148.271 83.483C148.221 83.4281 148.16 83.385 148.091 83.3568C148.032 83.3427 147.97 83.3416 147.91 83.3536C147.85 83.3656 147.793 83.3905 147.743 83.4265C147.597 83.5253 147.478 83.6581 147.395 83.8136C147.186 84.1607 147.064 84.5527 147.038 84.9569C147.013 85.361 147.085 85.7653 147.248 86.136C147.301 86.1798 147.339 86.2394 147.356 86.3063C147.381 86.4034 147.373 86.5061 147.334 86.5984C147.295 86.6908 147.226 86.7676 147.139 86.8172C147.067 86.853 146.988 86.874 146.907 86.8791Z" fill="#231F20"/>
<path d="M146.792 89.1239C146.311 88.6204 145.986 87.9886 145.855 87.3047C145.855 87.3047 144.934 89.1549 146.203 90.5251L146.792 89.1239Z" fill="#231F20"/>
<path d="M146.203 90.9124C146.15 90.9119 146.097 90.9006 146.048 90.8793C145.998 90.8581 145.954 90.8272 145.917 90.7885C144.485 89.2403 145.468 87.2198 145.507 87.1346C145.545 87.0598 145.606 86.9992 145.681 86.9616C145.757 86.924 145.842 86.9114 145.925 86.9256C146.007 86.9403 146.083 86.9814 146.14 87.0429C146.197 87.1043 146.233 87.1827 146.242 87.2662C146.363 87.8514 146.651 88.3891 147.07 88.8145C147.123 88.8685 147.159 88.9371 147.173 89.0116C147.187 89.0862 147.178 89.1631 147.148 89.2325L146.559 90.6337C146.533 90.6938 146.493 90.7464 146.442 90.787C146.39 90.8275 146.33 90.8546 146.265 90.8659L146.203 90.9124ZM145.925 88.59C145.877 88.9853 145.936 89.3861 146.095 89.7512L146.319 89.2325C146.172 89.0341 146.04 88.8245 145.925 88.6055V88.59Z" fill="#231F20"/>
<path d="M151.35 84.7374C151.517 84.5258 151.584 84.3007 151.5 84.2345C151.416 84.1684 151.213 84.2863 151.046 84.4978C150.879 84.7094 150.812 84.9345 150.896 85.0006C150.98 85.0668 151.183 84.9489 151.35 84.7374Z" fill="#231F20"/>
<path d="M151.738 84.4718L151.111 83.6357L151.738 84.4718Z" fill="white"/>
<path d="M151.738 84.8592C151.677 84.8611 151.616 84.8471 151.562 84.8186C151.508 84.7901 151.462 84.7481 151.429 84.6967L150.802 83.8606C150.772 83.8201 150.75 83.774 150.738 83.7251C150.726 83.6762 150.724 83.6254 150.732 83.5757C150.74 83.526 150.758 83.4783 150.784 83.4355C150.811 83.3927 150.846 83.3556 150.887 83.3264C150.969 83.2648 151.072 83.2384 151.174 83.2529C151.275 83.2674 151.367 83.3217 151.429 83.4039L152.048 84.2399C152.078 84.281 152.1 84.3277 152.112 84.3773C152.124 84.4268 152.126 84.4782 152.118 84.5285C152.11 84.5789 152.092 84.6272 152.066 84.6707C152.039 84.7141 152.004 84.7519 151.963 84.7818C151.898 84.83 151.819 84.8571 151.738 84.8592Z" fill="#231F20"/>
<path d="M99.4758 131.624C99.4758 131.624 93.3215 135.278 93.3215 135.859C93.3215 136.439 92.6402 136.129 94.7536 140.565C95.6439 142.446 99.7468 143.662 99.3288 142.245C98.1366 138.165 98.214 137.732 98.214 137.732L103.107 135.766" fill="#231F20"/>
<path d="M98.6777 143.252C97.3694 143.252 95.0935 142.199 94.3967 140.728C92.6162 136.973 92.7633 136.486 92.9026 136.013C92.9109 135.962 92.9109 135.91 92.9026 135.859C92.9026 135.619 92.9027 135.085 99.2428 131.291C99.3324 131.24 99.4385 131.226 99.5383 131.252C99.6381 131.278 99.7238 131.342 99.777 131.431C99.8278 131.519 99.8416 131.624 99.8155 131.722C99.7894 131.821 99.7255 131.905 99.6376 131.957C96.9591 133.552 94.0406 135.448 93.6768 135.936C93.6685 136.036 93.6477 136.135 93.6149 136.23C93.5374 136.486 93.4136 136.911 95.0702 140.395C95.527 141.363 97.0365 142.199 98.1668 142.423C98.4193 142.499 98.6883 142.499 98.9409 142.423C98.9409 142.423 98.9409 142.423 98.9409 142.346C98.4117 140.823 98.0357 139.252 97.8184 137.655C97.8297 137.59 97.8569 137.53 97.8974 137.478C97.9379 137.427 97.9906 137.386 98.0507 137.36L102.943 135.402C103.038 135.363 103.144 135.364 103.238 135.403C103.332 135.442 103.407 135.517 103.446 135.611C103.485 135.707 103.485 135.813 103.446 135.909C103.407 136.004 103.332 136.081 103.237 136.122L98.5925 137.972C98.8776 139.376 99.2368 140.763 99.6686 142.129C99.7089 142.228 99.7284 142.334 99.7258 142.441C99.7232 142.547 99.6986 142.652 99.6535 142.749C99.6084 142.845 99.5439 142.932 99.4639 143.002C99.3839 143.073 99.2902 143.126 99.1886 143.159C99.0245 143.217 98.8519 143.249 98.6777 143.252Z" fill="#231F20"/>
<path d="M169.915 96.4246C169.915 96.4246 175.442 96.5717 175.543 96.4246C175.643 96.2775 177.254 87.4137 176.379 87.7775C175.504 88.1413 173.693 92.7939 173.693 92.7939L169.257 93.0107" fill="white"/>
<path d="M173.878 96.8814C173.019 96.8814 171.757 96.8814 169.899 96.8118C169.798 96.8077 169.702 96.7641 169.633 96.6903C169.563 96.6165 169.526 96.5183 169.528 96.417C169.527 96.3655 169.536 96.3143 169.556 96.2668C169.575 96.2192 169.605 96.1762 169.642 96.1405C169.679 96.1049 169.723 96.0773 169.771 96.0596C169.82 96.0419 169.871 96.0344 169.922 96.0376C172.09 96.0918 174.513 96.1228 175.241 96.0841C175.761 93.5516 176.1 90.9853 176.255 88.4047C175.365 89.8341 174.626 91.3518 174.049 92.9334C174.022 93.0031 173.975 93.0636 173.915 93.1076C173.855 93.1516 173.783 93.1771 173.708 93.1811L169.28 93.3978C169.229 93.4004 169.178 93.3929 169.13 93.3758C169.082 93.3587 169.038 93.3323 169.001 93.2982C168.924 93.2292 168.879 93.1328 168.874 93.0301C168.868 92.9275 168.904 92.827 168.973 92.7508C169.042 92.6745 169.139 92.6288 169.241 92.6237L173.422 92.4147C173.948 91.0832 175.334 87.7699 176.232 87.4215C176.333 87.3768 176.446 87.3678 176.553 87.3959C176.66 87.4241 176.754 87.4877 176.82 87.5763C177.594 88.5517 175.899 96.595 175.86 96.6492C175.821 96.7034 175.698 96.8814 173.878 96.8814Z" fill="#231F20"/>
<path d="M146.792 95.3789L142.519 105.04L144.988 107.873L147.744 105.04V94.5273L146.792 95.3789Z" fill="#231F20"/>
<path d="M139.809 88.915L171.177 92.2361L170.279 97.895C170.279 97.895 144.732 98.4911 138.454 96.4861" fill="white"/>
<path d="M161.786 98.3672C153.743 98.3672 142.348 98.1272 138.338 96.8576C138.287 96.8424 138.24 96.8173 138.199 96.7837C138.157 96.7502 138.123 96.7089 138.098 96.6622C138.073 96.6154 138.057 96.5642 138.052 96.5114C138.047 96.4586 138.052 96.4053 138.067 96.3544C138.082 96.3036 138.107 96.2563 138.141 96.2152C138.174 96.174 138.216 96.1399 138.262 96.1148C138.309 96.0896 138.36 96.0739 138.413 96.0685C138.466 96.0632 138.519 96.0682 138.57 96.0835C144.376 97.9259 166.973 97.5389 169.946 97.4769L170.72 92.538L139.754 89.2634C139.704 89.2583 139.654 89.2432 139.609 89.2191C139.564 89.1949 139.524 89.1622 139.492 89.1226C139.46 89.0831 139.436 89.0376 139.421 88.9887C139.406 88.9398 139.401 88.8884 139.406 88.8376C139.411 88.7868 139.426 88.7374 139.45 88.6924C139.475 88.6474 139.507 88.6076 139.547 88.5752C139.586 88.5429 139.632 88.5186 139.681 88.5039C139.73 88.4891 139.781 88.4842 139.832 88.4892L171.208 91.8103C171.312 91.8253 171.407 91.8809 171.471 91.9651C171.503 92.0064 171.526 92.0537 171.54 92.1043C171.553 92.1548 171.556 92.2076 171.548 92.2593L170.65 97.9182C170.636 98.0085 170.589 98.0906 170.52 98.1502C170.451 98.2097 170.362 98.2427 170.271 98.2433C169.907 98.2666 166.4 98.3672 161.786 98.3672Z" fill="#231F20"/>
<path d="M78.6367 44.8516H80.5566V57.2377H87.0516V59.0182H78.6367V44.8516Z" fill="#D1D3D4"/>
<path d="M88.088 54.2807C88.0835 53.6152 88.218 52.956 88.4828 52.3454C88.7376 51.7663 89.1001 51.2409 89.5511 50.7971C90.0024 50.3331 90.5385 49.96 91.1303 49.6979C91.7392 49.4357 92.3937 49.2963 93.0565 49.2875C93.7194 49.2788 94.3774 49.4009 94.9929 49.6468C95.6085 49.8927 96.1695 50.2577 96.6437 50.7208C97.118 51.1838 97.4963 51.7359 97.7569 52.3454C98.2688 53.5849 98.2688 54.9766 97.7569 56.2161C97.5102 56.7996 97.1466 57.3265 96.6886 57.7643C96.2282 58.2183 95.684 58.5785 95.0862 58.8249C93.818 59.3408 92.3985 59.3408 91.1303 58.8249C90.5561 58.5853 90.0311 58.2415 89.5821 57.8108C89.1241 57.373 88.7605 56.8461 88.5138 56.2625C88.2333 55.6395 88.0882 54.964 88.088 54.2807ZM90.0078 54.2807C90.0041 54.7343 90.0801 55.185 90.2323 55.6122C90.3615 55.9952 90.5704 56.3464 90.8453 56.6427C91.1202 56.9389 91.4548 57.1735 91.8271 57.3308C92.6606 57.6716 93.5946 57.6716 94.4282 57.3308C94.7989 57.1772 95.1317 56.9448 95.4036 56.6496C95.6807 56.3512 95.8917 55.9977 96.0229 55.6122C96.322 54.7524 96.322 53.8168 96.0229 52.957C95.8917 52.5715 95.6807 52.218 95.4036 51.9196C95.1317 51.6244 94.7989 51.3919 94.4282 51.2384C93.5946 50.8976 92.6606 50.8976 91.8271 51.2384C91.4548 51.3957 91.1202 51.6303 90.8453 51.9265C90.5704 52.2228 90.3615 52.574 90.2323 52.957C90.081 53.3818 90.005 53.8298 90.0078 54.2807Z" fill="#D1D3D4"/>
<path d="M100.459 50.7041C100.969 50.2379 101.57 49.8821 102.224 49.6591C102.865 49.4311 103.541 49.3133 104.221 49.3107C104.827 49.2985 105.431 49.3848 106.01 49.5662C106.462 49.7182 106.88 49.9575 107.24 50.2706C107.549 50.5483 107.789 50.8924 107.945 51.277C108.1 51.6552 108.179 52.0604 108.177 52.4692V57.2998V58.221C108.177 58.221 108.177 58.7706 108.231 58.9951H106.637C106.598 58.5152 106.575 58.0352 106.575 57.563C106.235 58.1196 105.743 58.568 105.158 58.8558C104.559 59.1201 103.909 59.2496 103.254 59.2351C102.829 59.2401 102.406 59.18 102 59.0571C101.616 58.9477 101.258 58.7635 100.947 58.5152C100.648 58.2761 100.405 57.975 100.234 57.6327C100.058 57.2468 99.9704 56.8261 99.979 56.4018C99.9557 55.856 100.099 55.3161 100.389 54.8535C100.673 54.4317 101.056 54.086 101.504 53.8471C102.024 53.5694 102.587 53.3786 103.168 53.282C103.838 53.1676 104.517 53.1106 105.197 53.1117H106.513V52.7479C106.511 52.5013 106.464 52.2571 106.373 52.0279C106.279 51.7854 106.137 51.5644 105.955 51.3776C105.756 51.1744 105.516 51.0161 105.251 50.9132C104.931 50.7978 104.592 50.7427 104.252 50.7506C103.948 50.7463 103.644 50.7775 103.347 50.8435C103.102 50.9073 102.864 50.9928 102.634 51.099C102.43 51.1966 102.236 51.3133 102.054 51.4473L101.558 51.8266L100.459 50.7041ZM105.537 54.4664C105.1 54.4671 104.664 54.4904 104.229 54.5361C103.814 54.5727 103.405 54.6638 103.014 54.8071C102.673 54.9203 102.363 55.1111 102.108 55.3644C101.992 55.4873 101.901 55.632 101.841 55.7901C101.782 55.9483 101.754 56.1167 101.76 56.2857C101.741 56.5127 101.782 56.7406 101.878 56.947C101.974 57.1534 102.123 57.331 102.309 57.4623C102.763 57.7223 103.281 57.8459 103.803 57.8184C104.235 57.8325 104.664 57.7478 105.057 57.5707C105.385 57.4223 105.674 57.1997 105.901 56.9205C106.112 56.6576 106.267 56.3548 106.358 56.0302C106.449 55.7157 106.496 55.39 106.497 55.0625V54.4664H105.537Z" fill="#D1D3D4"/>
<path d="M120.293 59.0182H118.489V57.6635H118.45C118.09 58.18 117.595 58.5872 117.018 58.8402C116.434 59.1147 115.797 59.2574 115.152 59.2582C114.47 59.2692 113.793 59.1401 113.163 58.8789C112.574 58.6458 112.045 58.2834 111.615 57.8183C111.194 57.3704 110.865 56.8444 110.647 56.27C110.412 55.6442 110.296 54.9799 110.306 54.3115C110.297 53.6406 110.413 52.9739 110.647 52.3452C110.865 51.7708 111.194 51.2448 111.615 50.7969C112.05 50.3417 112.578 49.9853 113.163 49.7518C113.793 49.4906 114.47 49.3615 115.152 49.3725C115.816 49.3679 116.473 49.5135 117.072 49.7983C117.631 50.0531 118.108 50.4577 118.45 50.9672H118.489V44H120.293V59.0182ZM115.369 57.5861C115.816 57.5927 116.259 57.5057 116.67 57.3306C117.042 57.175 117.377 56.9429 117.653 56.6494C117.927 56.349 118.138 55.9961 118.272 55.612C118.561 54.7505 118.561 53.8182 118.272 52.9567C118.138 52.5727 117.927 52.2198 117.653 51.9194C117.377 51.6258 117.042 51.3937 116.67 51.2382C116.259 51.0631 115.816 50.9761 115.369 50.9827C114.925 50.9741 114.484 51.0612 114.076 51.2382C113.703 51.3916 113.368 51.624 113.093 51.9194C112.819 52.2198 112.608 52.5727 112.474 52.9567C112.185 53.8182 112.185 54.7505 112.474 55.612C112.608 55.9961 112.819 56.349 113.093 56.6494C113.368 56.9447 113.703 57.1771 114.076 57.3306C114.484 57.5075 114.925 57.5947 115.369 57.5861Z" fill="#D1D3D4"/>
<path d="M122.725 46.1521C122.736 45.807 122.88 45.4795 123.127 45.2375C123.373 44.9955 123.703 44.8573 124.048 44.8516C124.397 44.8556 124.731 44.9966 124.977 45.2442C125.223 45.4918 125.362 45.8262 125.364 46.1753C125.362 46.5237 125.223 46.8573 124.977 47.1037C124.73 47.35 124.397 47.4893 124.048 47.4914C123.699 47.4894 123.365 47.3503 123.117 47.1041C122.87 46.858 122.729 46.5244 122.725 46.1753V46.1521ZM123.15 49.5506H124.946V59.0182H123.15V49.5506Z" fill="#D1D3D4"/>
<path d="M127.802 49.5507H129.605V51.0448H129.644C129.893 50.5178 130.306 50.0858 130.821 49.8139C131.416 49.4957 132.082 49.3358 132.756 49.3494C133.203 49.3483 133.648 49.4189 134.072 49.5585C134.481 49.6932 134.856 49.9151 135.172 50.2087C135.511 50.523 135.775 50.9092 135.946 51.339C136.145 51.8573 136.243 52.4093 136.232 52.9647V59.0184H134.428V53.4291C134.437 53.0448 134.376 52.6621 134.25 52.2989C134.149 52.0088 133.985 51.7445 133.77 51.5248C133.571 51.3409 133.337 51.1988 133.081 51.1067C132.819 51.0204 132.545 50.976 132.269 50.9751C131.914 50.9718 131.562 51.0348 131.231 51.1609C130.912 51.2809 130.625 51.4745 130.395 51.726C130.142 52.0151 129.95 52.3521 129.83 52.7169C129.68 53.1769 129.605 53.6577 129.605 54.1413V59.0184H127.802V49.5507Z" fill="#D1D3D4"/>
<path d="M148.417 58.9408C148.426 59.6145 148.3 60.2832 148.046 60.9071C147.809 61.4902 147.453 62.0175 147.001 62.4554C146.513 62.8922 145.942 63.2242 145.321 63.4308C144.64 63.6723 143.922 63.7928 143.2 63.7869C142.356 63.7978 141.517 63.6697 140.715 63.4076C139.915 63.1212 139.182 62.6732 138.563 62.0915L139.786 60.5433C140.22 61.0265 140.747 61.4186 141.334 61.6967C141.917 61.9607 142.552 62.0928 143.192 62.0838C143.758 62.1037 144.322 62.0062 144.849 61.7974C145.253 61.6215 145.613 61.357 145.901 61.0232C146.158 60.7156 146.345 60.3566 146.451 59.9704C146.558 59.5847 146.613 59.1863 146.614 58.786V57.4622H146.552C146.222 58.0185 145.73 58.4613 145.143 58.7318C144.555 59.0026 143.916 59.1426 143.269 59.1421C142.609 59.1476 141.953 59.0213 141.342 58.7705C140.771 58.5369 140.253 58.1902 139.819 57.7511C139.385 57.3121 139.045 56.7899 138.818 56.2159C138.573 55.6003 138.449 54.9431 138.454 54.2805C138.451 53.6177 138.566 52.9596 138.795 52.3374C139.012 51.7624 139.341 51.2362 139.763 50.7892C140.195 50.3267 140.723 49.9646 141.311 49.7286C141.938 49.4674 142.613 49.3382 143.293 49.3493C143.94 49.35 144.58 49.4927 145.166 49.7673C145.74 50.0205 146.233 50.4278 146.59 50.944H146.637V49.5506H148.417V58.9408ZM143.502 50.9827C143.055 50.9761 142.612 51.0631 142.201 51.2382C141.829 51.3955 141.494 51.6301 141.219 51.9263C140.944 52.2226 140.735 52.5738 140.606 52.9568C140.455 53.3816 140.379 53.8296 140.382 54.2805C140.361 54.7043 140.424 55.1281 140.569 55.527C140.714 55.9258 140.937 56.2917 141.226 56.6029C141.852 57.1612 142.662 57.4696 143.502 57.4696C144.341 57.4696 145.151 57.1612 145.778 56.6029C146.065 56.2907 146.287 55.9247 146.432 55.5261C146.576 55.1275 146.641 54.7042 146.621 54.2805C146.624 53.8296 146.548 53.3816 146.397 52.9568C146.266 52.5713 146.055 52.2178 145.778 51.9194C145.506 51.6242 145.173 51.3917 144.802 51.2382C144.389 51.062 143.943 50.975 143.494 50.9827H143.502Z" fill="#D1D3D4"/>
<path d="M152.543 59.1417C152.21 59.1163 151.9 58.9661 151.673 58.7214C151.446 58.4767 151.32 58.1554 151.32 57.8218C151.32 57.4883 151.446 57.167 151.673 56.9223C151.9 56.6776 152.21 56.5274 152.543 56.502C152.876 56.5274 153.186 56.6776 153.413 56.9223C153.64 57.167 153.766 57.4883 153.766 57.8218C153.766 58.1554 153.64 58.4767 153.413 58.7214C153.186 58.9661 152.876 59.1163 152.543 59.1417Z" fill="#D1D3D4"/>
<path d="M158.102 59.1417C157.769 59.1163 157.458 58.9661 157.232 58.7214C157.005 58.4767 156.879 58.1554 156.879 57.8218C156.879 57.4883 157.005 57.167 157.232 56.9223C157.458 56.6776 157.769 56.5274 158.102 56.502C158.434 56.5274 158.745 56.6776 158.972 56.9223C159.198 57.167 159.324 57.4883 159.324 57.8218C159.324 58.1554 159.198 58.4767 158.972 58.7214C158.745 58.9661 158.434 59.1163 158.102 59.1417Z" fill="#D1D3D4"/>
<path d="M163.659 59.1417C163.327 59.1163 163.016 58.9661 162.789 58.7214C162.562 58.4767 162.437 58.1554 162.437 57.8218C162.437 57.4883 162.562 57.167 162.789 56.9223C163.016 56.6776 163.327 56.5274 163.659 56.502C163.992 56.5274 164.302 56.6776 164.529 56.9223C164.756 57.167 164.882 57.4883 164.882 57.8218C164.882 58.1554 164.756 58.4767 164.529 58.7214C164.302 58.9661 163.992 59.1163 163.659 59.1417Z" fill="#D1D3D4"/>
</svg>
